<mxfile host="app.diagrams.net" agent="Mozilla/5.0 (Macintosh; Intel Mac OS X 10_15_7) AppleWebKit/537.36 (KHTML, like Gecko) Chrome/138.0.0.0 Safari/537.36" version="28.0.7">
  <diagram name="Pagina-1" id="2DQ2qeYv8uNM2oX29HOF">
    <mxGraphModel dx="1351" dy="743" grid="1" gridSize="10" guides="1" tooltips="1" connect="1" arrows="1" fold="1" page="1" pageScale="1" pageWidth="827" pageHeight="1169" math="0" shadow="0">
      <root>
        <mxCell id="0" />
        <mxCell id="1" parent="0" />
        <mxCell id="3" value="Merchant creates payment request" style="whiteSpace=wrap;strokeWidth=2;rounded=1;" parent="1" vertex="1">
          <mxGeometry x="598" y="112" width="260" height="78" as="geometry" />
        </mxCell>
        <mxCell id="4" value="Generate QR code with OpenID4VP request" style="whiteSpace=wrap;strokeWidth=2;rounded=1;fillColor=#d5e8d4;strokeColor=#82b366;" parent="1" vertex="1">
          <mxGeometry x="598" y="240" width="260" height="78" as="geometry" />
        </mxCell>
        <mxCell id="5" value="Customer scans QR with wallet" style="whiteSpace=wrap;strokeWidth=2;rounded=1;" parent="1" vertex="1">
          <mxGeometry x="598" y="368" width="260" height="78" as="geometry" />
        </mxCell>
        <mxCell id="6" value="Credential proof sent via Procivis" style="whiteSpace=wrap;strokeWidth=2;rounded=1;fillColor=#d5e8d4;strokeColor=#82b366;" parent="1" vertex="1">
          <mxGeometry x="598" y="496" width="260" height="78" as="geometry" />
        </mxCell>
        <mxCell id="7" value="Mark payment as PROCESSING" style="whiteSpace=wrap;strokeWidth=2;rounded=1;" parent="1" vertex="1">
          <mxGeometry x="598" y="624" width="260" height="78" as="geometry" />
        </mxCell>
        <mxCell id="8" value="Prompt customer for PIN" style="whiteSpace=wrap;strokeWidth=2;rounded=1;" parent="1" vertex="1">
          <mxGeometry x="610" y="752" width="237" height="54" as="geometry" />
        </mxCell>
        <mxCell id="9" value="Validate PIN" style="whiteSpace=wrap;strokeWidth=2;rounded=1;" parent="1" vertex="1">
          <mxGeometry x="655" y="856" width="147" height="54" as="geometry" />
        </mxCell>
        <mxCell id="10" value="Is PIN correct?" style="rhombus;strokeWidth=2;whiteSpace=wrap;" parent="1" vertex="1">
          <mxGeometry x="650" y="960" width="156" height="156" as="geometry" />
        </mxCell>
        <mxCell id="11" value="Check user balance" style="whiteSpace=wrap;strokeWidth=2;rounded=1;" parent="1" vertex="1">
          <mxGeometry x="187" y="1188" width="199" height="54" as="geometry" />
        </mxCell>
        <mxCell id="YuL-Q0VjZT54Avt_MLxh-56" value="" style="edgeStyle=orthogonalEdgeStyle;rounded=0;orthogonalLoop=1;jettySize=auto;html=1;" edge="1" parent="1" source="12" target="20">
          <mxGeometry relative="1" as="geometry" />
        </mxCell>
        <mxCell id="12" value="Increment PIN failure count" style="whiteSpace=wrap;strokeWidth=2;rounded=1;" parent="1" vertex="1">
          <mxGeometry x="902" y="1188" width="259" height="54" as="geometry" />
        </mxCell>
        <mxCell id="13" value="Is balance sufficient?" style="rhombus;strokeWidth=2;whiteSpace=wrap;" parent="1" vertex="1">
          <mxGeometry x="184" y="1329" width="204" height="204" as="geometry" />
        </mxCell>
        <mxCell id="14" value="Deduct amount" style="whiteSpace=wrap;strokeWidth=2;rounded=1;" parent="1" vertex="1">
          <mxGeometry x="53" y="1655" width="169" height="54" as="geometry" />
        </mxCell>
        <mxCell id="15" value="Show insufficient balance message" style="whiteSpace=wrap;strokeWidth=2;rounded=1;" parent="1" vertex="1">
          <mxGeometry x="304" y="1643" width="260" height="78" as="geometry" />
        </mxCell>
        <mxCell id="16" value="Mark payment as COMPLETED" style="whiteSpace=wrap;strokeWidth=2;rounded=1;" parent="1" vertex="1">
          <mxGeometry x="8" y="1771" width="260" height="78" as="geometry" />
        </mxCell>
        <mxCell id="YuL-Q0VjZT54Avt_MLxh-87" value="" style="edgeStyle=orthogonalEdgeStyle;rounded=0;orthogonalLoop=1;jettySize=auto;html=1;entryX=0.004;entryY=0.621;entryDx=0;entryDy=0;entryPerimeter=0;" edge="1" parent="1" source="17" target="YuL-Q0VjZT54Avt_MLxh-58">
          <mxGeometry relative="1" as="geometry">
            <mxPoint x="137.50000000000023" y="2042" as="targetPoint" />
            <Array as="points">
              <mxPoint x="140" y="2458" />
            </Array>
          </mxGeometry>
        </mxCell>
        <mxCell id="17" value="Show success message" style="whiteSpace=wrap;strokeWidth=2;rounded=1;" parent="1" vertex="1">
          <mxGeometry x="28" y="1911" width="219" height="54" as="geometry" />
        </mxCell>
        <mxCell id="YuL-Q0VjZT54Avt_MLxh-89" value="" style="edgeStyle=orthogonalEdgeStyle;rounded=0;orthogonalLoop=1;jettySize=auto;html=1;entryX=0;entryY=0.25;entryDx=0;entryDy=0;" edge="1" parent="1" source="18" target="YuL-Q0VjZT54Avt_MLxh-58">
          <mxGeometry relative="1" as="geometry">
            <mxPoint x="434.5" y="1914" as="targetPoint" />
            <Array as="points">
              <mxPoint x="435" y="2430" />
            </Array>
          </mxGeometry>
        </mxCell>
        <mxCell id="18" value="Mark payment as FAILED" style="whiteSpace=wrap;strokeWidth=2;rounded=1;" parent="1" vertex="1">
          <mxGeometry x="318" y="1783" width="233" height="54" as="geometry" />
        </mxCell>
        <mxCell id="YuL-Q0VjZT54Avt_MLxh-77" value="" style="edgeStyle=orthogonalEdgeStyle;rounded=0;orthogonalLoop=1;jettySize=auto;html=1;entryX=0.5;entryY=0;entryDx=0;entryDy=0;" edge="1" parent="1" source="20" target="21">
          <mxGeometry relative="1" as="geometry" />
        </mxCell>
        <mxCell id="YuL-Q0VjZT54Avt_MLxh-78" value="Yes" style="edgeLabel;html=1;align=center;verticalAlign=middle;resizable=0;points=[];" vertex="1" connectable="0" parent="YuL-Q0VjZT54Avt_MLxh-77">
          <mxGeometry x="-0.1286" y="-2" relative="1" as="geometry">
            <mxPoint as="offset" />
          </mxGeometry>
        </mxCell>
        <mxCell id="YuL-Q0VjZT54Avt_MLxh-79" value="" style="edgeStyle=orthogonalEdgeStyle;rounded=0;orthogonalLoop=1;jettySize=auto;html=1;" edge="1" parent="1" source="20" target="22">
          <mxGeometry relative="1" as="geometry" />
        </mxCell>
        <mxCell id="YuL-Q0VjZT54Avt_MLxh-80" value="No" style="edgeLabel;html=1;align=center;verticalAlign=middle;resizable=0;points=[];" vertex="1" connectable="0" parent="YuL-Q0VjZT54Avt_MLxh-79">
          <mxGeometry x="0.1554" y="-1" relative="1" as="geometry">
            <mxPoint as="offset" />
          </mxGeometry>
        </mxCell>
        <mxCell id="20" value="Is failure count &gt;= threshold?" style="rhombus;strokeWidth=2;whiteSpace=wrap;" parent="1" vertex="1">
          <mxGeometry x="892.5" y="1320" width="278" height="278" as="geometry" />
        </mxCell>
        <mxCell id="21" value="Revoke credential via Procivis" style="whiteSpace=wrap;strokeWidth=2;rounded=1;fillColor=#d5e8d4;strokeColor=#82b366;" parent="1" vertex="1">
          <mxGeometry x="614.5" y="1598" width="260" height="78" as="geometry" />
        </mxCell>
        <mxCell id="YuL-Q0VjZT54Avt_MLxh-55" value="" style="edgeStyle=orthogonalEdgeStyle;rounded=0;orthogonalLoop=1;jettySize=auto;html=1;entryX=0.5;entryY=0;entryDx=0;entryDy=0;" edge="1" parent="1" source="22" target="25">
          <mxGeometry relative="1" as="geometry">
            <mxPoint x="1280" y="1740" as="targetPoint" />
          </mxGeometry>
        </mxCell>
        <mxCell id="22" value="Send alert email" style="whiteSpace=wrap;strokeWidth=2;rounded=1;" parent="1" vertex="1">
          <mxGeometry x="1187.5" y="1622" width="178" height="54" as="geometry" />
        </mxCell>
        <mxCell id="23" value="Send revocation email" style="whiteSpace=wrap;strokeWidth=2;rounded=1;" parent="1" vertex="1">
          <mxGeometry x="635" y="1783" width="219" height="54" as="geometry" />
        </mxCell>
        <mxCell id="YuL-Q0VjZT54Avt_MLxh-64" value="" style="edgeStyle=orthogonalEdgeStyle;rounded=0;orthogonalLoop=1;jettySize=auto;html=1;" edge="1" parent="1" source="24" target="YuL-Q0VjZT54Avt_MLxh-58">
          <mxGeometry relative="1" as="geometry" />
        </mxCell>
        <mxCell id="24" value="Mark credential as REVOKED" style="whiteSpace=wrap;strokeWidth=2;rounded=1;" parent="1" vertex="1">
          <mxGeometry x="614" y="1899" width="260" height="78" as="geometry" />
        </mxCell>
        <mxCell id="YuL-Q0VjZT54Avt_MLxh-69" value="" style="edgeStyle=orthogonalEdgeStyle;rounded=0;orthogonalLoop=1;jettySize=auto;html=1;" edge="1" parent="1" source="25" target="YuL-Q0VjZT54Avt_MLxh-67">
          <mxGeometry relative="1" as="geometry" />
        </mxCell>
        <mxCell id="25" value="Show PIN error message" style="whiteSpace=wrap;strokeWidth=2;rounded=1;" parent="1" vertex="1">
          <mxGeometry x="1161" y="1760" width="231" height="54" as="geometry" />
        </mxCell>
        <mxCell id="26" value="" style="curved=1;startArrow=none;endArrow=block;entryX=0.5;entryY=0;" parent="1" source="YuL-Q0VjZT54Avt_MLxh-48" target="3" edge="1">
          <mxGeometry relative="1" as="geometry">
            <Array as="points" />
            <mxPoint x="727.5" y="62" as="sourcePoint" />
          </mxGeometry>
        </mxCell>
        <mxCell id="27" value="" style="curved=1;startArrow=none;endArrow=block;exitX=0.5;exitY=1;entryX=0.5;entryY=0;" parent="1" source="3" target="4" edge="1">
          <mxGeometry relative="1" as="geometry">
            <Array as="points" />
          </mxGeometry>
        </mxCell>
        <mxCell id="28" value="" style="curved=1;startArrow=none;endArrow=block;exitX=0.5;exitY=1;entryX=0.5;entryY=0;" parent="1" source="4" target="5" edge="1">
          <mxGeometry relative="1" as="geometry">
            <Array as="points" />
          </mxGeometry>
        </mxCell>
        <mxCell id="29" value="" style="curved=1;startArrow=none;endArrow=block;exitX=0.5;exitY=1;entryX=0.5;entryY=0;" parent="1" source="5" target="6" edge="1">
          <mxGeometry relative="1" as="geometry">
            <Array as="points" />
          </mxGeometry>
        </mxCell>
        <mxCell id="30" value="" style="curved=1;startArrow=none;endArrow=block;exitX=0.5;exitY=1;entryX=0.5;entryY=0;" parent="1" source="6" target="7" edge="1">
          <mxGeometry relative="1" as="geometry">
            <Array as="points" />
          </mxGeometry>
        </mxCell>
        <mxCell id="31" value="" style="curved=1;startArrow=none;endArrow=block;exitX=0.5;exitY=1;entryX=0.5;entryY=0;" parent="1" source="7" target="8" edge="1">
          <mxGeometry relative="1" as="geometry">
            <Array as="points" />
          </mxGeometry>
        </mxCell>
        <mxCell id="32" value="" style="curved=1;startArrow=none;endArrow=block;exitX=0.5;exitY=1;entryX=0.5;entryY=0;" parent="1" source="8" target="9" edge="1">
          <mxGeometry relative="1" as="geometry">
            <Array as="points" />
          </mxGeometry>
        </mxCell>
        <mxCell id="33" value="" style="curved=1;startArrow=none;endArrow=block;exitX=0.5;exitY=1;entryX=0.5;entryY=0;" parent="1" source="9" target="10" edge="1">
          <mxGeometry relative="1" as="geometry">
            <Array as="points" />
          </mxGeometry>
        </mxCell>
        <mxCell id="34" value="yes" style="curved=1;startArrow=none;endArrow=block;exitX=0;exitY=0.63;entryX=0.5;entryY=0.01;" parent="1" source="10" target="11" edge="1">
          <mxGeometry relative="1" as="geometry">
            <Array as="points">
              <mxPoint x="286" y="1152" />
            </Array>
          </mxGeometry>
        </mxCell>
        <mxCell id="35" value="no" style="curved=1;startArrow=none;endArrow=block;exitX=1;exitY=0.69;entryX=0.5;entryY=0.01;" parent="1" source="10" target="12" edge="1">
          <mxGeometry relative="1" as="geometry">
            <Array as="points">
              <mxPoint x="1031" y="1152" />
            </Array>
          </mxGeometry>
        </mxCell>
        <mxCell id="36" value="" style="curved=1;startArrow=none;endArrow=block;exitX=0.5;exitY=1.01;entryX=0.5;entryY=0;" parent="1" source="11" target="13" edge="1">
          <mxGeometry relative="1" as="geometry">
            <Array as="points" />
          </mxGeometry>
        </mxCell>
        <mxCell id="37" value="yes" style="curved=1;startArrow=none;endArrow=block;exitX=0.08;exitY=1;entryX=0.5;entryY=0;" parent="1" source="13" target="14" edge="1">
          <mxGeometry relative="1" as="geometry">
            <Array as="points">
              <mxPoint x="138" y="1607" />
            </Array>
          </mxGeometry>
        </mxCell>
        <mxCell id="38" value="no" style="curved=1;startArrow=none;endArrow=block;exitX=0.92;exitY=1;entryX=0.5;entryY=0;" parent="1" source="13" target="15" edge="1">
          <mxGeometry relative="1" as="geometry">
            <Array as="points">
              <mxPoint x="434" y="1607" />
            </Array>
          </mxGeometry>
        </mxCell>
        <mxCell id="39" value="" style="curved=1;startArrow=none;endArrow=block;exitX=0.5;exitY=1;entryX=0.5;entryY=0;" parent="1" source="14" target="16" edge="1">
          <mxGeometry relative="1" as="geometry">
            <Array as="points" />
          </mxGeometry>
        </mxCell>
        <mxCell id="40" value="" style="curved=1;startArrow=none;endArrow=block;exitX=0.5;exitY=1;entryX=0.5;entryY=0;" parent="1" source="16" target="17" edge="1">
          <mxGeometry relative="1" as="geometry">
            <Array as="points" />
          </mxGeometry>
        </mxCell>
        <mxCell id="41" value="" style="curved=1;startArrow=none;endArrow=block;exitX=0.5;exitY=1;entryX=0.5;entryY=0;" parent="1" source="15" target="18" edge="1">
          <mxGeometry relative="1" as="geometry">
            <Array as="points" />
          </mxGeometry>
        </mxCell>
        <mxCell id="46" value="" style="curved=1;startArrow=none;endArrow=block;exitX=0.5;exitY=1;entryX=0.5;entryY=0;" parent="1" source="21" target="23" edge="1">
          <mxGeometry relative="1" as="geometry">
            <Array as="points" />
          </mxGeometry>
        </mxCell>
        <mxCell id="47" value="" style="curved=1;startArrow=none;endArrow=block;exitX=0.5;exitY=1;entryX=0.5;entryY=0;" parent="1" source="23" target="24" edge="1">
          <mxGeometry relative="1" as="geometry">
            <Array as="points" />
          </mxGeometry>
        </mxCell>
        <mxCell id="YuL-Q0VjZT54Avt_MLxh-48" value="Start" style="ellipse;shape=doubleEllipse;html=1;dashed=0;whiteSpace=wrap;aspect=fixed;fillColor=#33001A;" vertex="1" parent="1">
          <mxGeometry x="698.5" width="60" height="60" as="geometry" />
        </mxCell>
        <mxCell id="YuL-Q0VjZT54Avt_MLxh-52" value="" style="shape=ellipse;html=1;dashed=0;whiteSpace=wrap;aspect=fixed;strokeWidth=5;perimeter=ellipsePerimeter;" vertex="1" parent="1">
          <mxGeometry x="714.5" y="2592.5" width="60" height="60" as="geometry" />
        </mxCell>
        <mxCell id="YuL-Q0VjZT54Avt_MLxh-65" value="" style="edgeStyle=orthogonalEdgeStyle;rounded=0;orthogonalLoop=1;jettySize=auto;html=1;" edge="1" parent="1" source="YuL-Q0VjZT54Avt_MLxh-58" target="YuL-Q0VjZT54Avt_MLxh-52">
          <mxGeometry relative="1" as="geometry" />
        </mxCell>
        <mxCell id="YuL-Q0VjZT54Avt_MLxh-58" value="Customer Close Payment Modal" style="whiteSpace=wrap;strokeWidth=2;rounded=1;" vertex="1" parent="1">
          <mxGeometry x="614.5" y="2410" width="260" height="78" as="geometry" />
        </mxCell>
        <mxCell id="YuL-Q0VjZT54Avt_MLxh-66" value="" style="shape=ellipse;html=1;dashed=0;whiteSpace=wrap;perimeter=ellipsePerimeter;fillColor=#33001A;" vertex="1" parent="1">
          <mxGeometry x="723.75" y="2600" width="41.5" height="45" as="geometry" />
        </mxCell>
        <mxCell id="YuL-Q0VjZT54Avt_MLxh-75" value="" style="edgeStyle=orthogonalEdgeStyle;rounded=0;orthogonalLoop=1;jettySize=auto;html=1;" edge="1" parent="1" source="YuL-Q0VjZT54Avt_MLxh-67" target="YuL-Q0VjZT54Avt_MLxh-71">
          <mxGeometry relative="1" as="geometry" />
        </mxCell>
        <mxCell id="YuL-Q0VjZT54Avt_MLxh-76" value="Yes" style="edgeLabel;html=1;align=center;verticalAlign=middle;resizable=0;points=[];" vertex="1" connectable="0" parent="YuL-Q0VjZT54Avt_MLxh-75">
          <mxGeometry x="-0.3709" y="-1" relative="1" as="geometry">
            <mxPoint as="offset" />
          </mxGeometry>
        </mxCell>
        <mxCell id="YuL-Q0VjZT54Avt_MLxh-82" value="" style="edgeStyle=orthogonalEdgeStyle;rounded=0;orthogonalLoop=1;jettySize=auto;html=1;entryX=1;entryY=0.5;entryDx=0;entryDy=0;" edge="1" parent="1" source="YuL-Q0VjZT54Avt_MLxh-67" target="8">
          <mxGeometry relative="1" as="geometry">
            <mxPoint x="1574.5" y="2009" as="targetPoint" />
            <Array as="points">
              <mxPoint x="1590" y="2009" />
              <mxPoint x="1590" y="779" />
            </Array>
          </mxGeometry>
        </mxCell>
        <mxCell id="YuL-Q0VjZT54Avt_MLxh-83" value="No" style="edgeLabel;html=1;align=center;verticalAlign=middle;resizable=0;points=[];" vertex="1" connectable="0" parent="YuL-Q0VjZT54Avt_MLxh-82">
          <mxGeometry x="-0.883" y="5" relative="1" as="geometry">
            <mxPoint as="offset" />
          </mxGeometry>
        </mxCell>
        <mxCell id="YuL-Q0VjZT54Avt_MLxh-67" value="Did customer suspended his credential?" style="rhombus;strokeWidth=2;whiteSpace=wrap;" vertex="1" parent="1">
          <mxGeometry x="1137.5" y="1870" width="278" height="278" as="geometry" />
        </mxCell>
        <mxCell id="YuL-Q0VjZT54Avt_MLxh-68" style="edgeStyle=orthogonalEdgeStyle;rounded=0;orthogonalLoop=1;jettySize=auto;html=1;exitX=0.5;exitY=1;exitDx=0;exitDy=0;entryX=0.629;entryY=1.056;entryDx=0;entryDy=0;entryPerimeter=0;" edge="1" parent="1" source="25" target="25">
          <mxGeometry relative="1" as="geometry" />
        </mxCell>
        <mxCell id="YuL-Q0VjZT54Avt_MLxh-85" value="" style="edgeStyle=orthogonalEdgeStyle;rounded=0;orthogonalLoop=1;jettySize=auto;html=1;entryX=1.009;entryY=0.621;entryDx=0;entryDy=0;entryPerimeter=0;" edge="1" parent="1" source="YuL-Q0VjZT54Avt_MLxh-71" target="YuL-Q0VjZT54Avt_MLxh-58">
          <mxGeometry relative="1" as="geometry">
            <mxPoint x="1004" y="2326.5000000000005" as="targetPoint" />
            <Array as="points">
              <mxPoint x="1004" y="2449" />
              <mxPoint x="877" y="2449" />
            </Array>
          </mxGeometry>
        </mxCell>
        <mxCell id="YuL-Q0VjZT54Avt_MLxh-71" value="Suspend credential via Procivis" style="whiteSpace=wrap;strokeWidth=2;rounded=1;fillColor=#d5e8d4;strokeColor=#82b366;" vertex="1" parent="1">
          <mxGeometry x="874" y="2159.5" width="260" height="78" as="geometry" />
        </mxCell>
      </root>
    </mxGraphModel>
  </diagram>
</mxfile>
